<svg xmlns="http://www.w3.org/2000/svg" viewBox="0 0 446.78 239"><defs><style>.cls-1{fill:#666;}</style></defs><title>資產 16</title><g id="圖層_2" data-name="圖層 2"><g id="圖層_1-2" data-name="圖層 1"><path class="cls-1" d="M136.59,0H49.41a6,6,0,0,0-5.19,3L5.59,69.89C4,72.68,2,75.49.65,78.44-1.27,82.72,1.46,86,3.5,89.5l22.41,38.81L44.22,160a6,6,0,0,0,5.19,3h87.18a6,6,0,0,0,5.18-3L180.4,93.11c1.61-2.79,3.61-5.6,4.94-8.55,1.92-4.28-.8-7.51-2.85-11.06L160.08,34.69,141.77,3C137.91-3.71,127.53,2.32,131.4,9l38.13,66L175,84.53V78.47l-38.12,66L131.4,154l5.19-3H49.41l5.18,3-38.13-66L11,78.47v6.06l38.12-66L54.59,9l-5.18,3h87.18C144.31,12,144.32,0,136.59,0Z"/><path class="cls-1" d="M266.16,76H179a6,6,0,0,0-5.18,3l-38.63,66.92a95.71,95.71,0,0,0-4.94,8.55c-1.92,4.28.8,7.51,2.85,11.06l22.4,38.81L173.8,236a6,6,0,0,0,5.18,3h87.18a6,6,0,0,0,5.18-3L310,169.11a95.71,95.71,0,0,0,4.94-8.55c1.92-4.28-.8-7.51-2.85-11.06l-22.41-38.81L271.34,79c-3.86-6.68-14.23-.65-10.36,6.06l38.12,66,5.47,9.46v-6.06l-38.13,66L261,230l5.18-3H179l5.18,3-38.13-66-5.46-9.46v6.06l38.13-66L184.16,85,179,88h87.18C273.88,88,273.89,76,266.16,76Z"/><path class="cls-1" d="M397.37,154H310.19l5.18,3-38.12-66-5.47-9.46v6.06l38.13-66L315.37,12l-5.18,3h87.18l-5.18-3,38.13,66,5.46,9.46V81.47l-38.13,66L392.19,157c-3.87,6.7,6.5,12.75,10.36,6.06l38.64-66.92a98.11,98.11,0,0,0,4.93-8.55c1.92-4.28-.8-7.51-2.85-11.06l-22.4-38.81L402.55,6a6,6,0,0,0-5.18-3H310.19A6,6,0,0,0,305,6L266.38,72.89a95.71,95.71,0,0,0-4.94,8.55c-1.92,4.28.8,7.51,2.85,11.06l22.41,38.81L305,163a6,6,0,0,0,5.18,3h87.18C405.09,166,405.11,154,397.37,154Z"/></g></g></svg>