<svg xmlns="http://www.w3.org/2000/svg" viewBox="0 0 288.49 493.26"><defs><style>.cls-1{fill:#666;}.cls-2,.cls-3{opacity:0.6;}.cls-3{fill:none;stroke:#666;stroke-miterlimit:10;stroke-width:10px;}</style></defs><title>資產 6</title><g id="圖層_2" data-name="圖層 2"><g id="圖層_1-2" data-name="圖層 1"><polygon class="cls-1" points="175.81 493.26 58.6 493.26 0 385.51 58.6 277.76 175.81 277.76 234.41 385.51 175.81 493.26"/><g class="cls-2"><path class="cls-1" d="M224.16,459.75H107l5.18,3L60.8,368.34,53.54,355v6l51.33-94.38,7.27-13.36-5.18,3h117.2l-5.18-3,51.34,94.38L277.59,361v-6l-51.34,94.38L219,462.72c-3.69,6.79,6.67,12.85,10.36,6.06l51.83-95.28c2.21-4.07,4.92-8.14,6.74-12.41,2.06-4.81-1.87-9.62-4.13-13.77l-29.89-55-24.55-45.12a6,6,0,0,0-5.18-3H107a6,6,0,0,0-5.18,3L50,342.51c-2.22,4.07-4.93,8.14-6.75,12.41-2.05,4.81,1.87,9.62,4.13,13.77l29.89,55,24.55,45.12a6,6,0,0,0,5.18,3h117.2C231.89,471.75,231.9,459.75,224.16,459.75Z"/></g><line class="cls-3" x1="106.83" y1="250.26" x2="71.27" y2="136.05"/><line class="cls-3" x1="55.61" y1="225.69" x2="20.05" y2="111.49"/><line class="cls-3" x1="20.05" y1="115.69" x2="55.61" y2="1.49"/></g></g></svg>