<svg xmlns="http://www.w3.org/2000/svg" viewBox="0 0 31.15 475"><defs><style>.cls-1{fill:none;}.cls-2{fill:#666;}</style></defs><title>資產 14</title><g id="圖層_2" data-name="圖層 2"><g id="圖層_1-2" data-name="圖層 1"><line class="cls-1" x1="26.15" y1="231" x2="26.15"/><line class="cls-1" x1="26.15" y1="417" x2="26.15" y2="371"/><path class="cls-1" d="M26.15,467V430"/><line class="cls-1" x1="22.49" y1="466.85" x2="1.82" y2="436.15"/><line class="cls-1" x1="26.15" y1="351" x2="26.15" y2="250"/><rect class="cls-2" x="21.15" width="10" height="231" rx="3"/><rect class="cls-2" x="21.15" y="250" width="10" height="101" rx="3"/><rect class="cls-2" x="21.15" y="370.5" width="10" height="47" rx="3"/><path class="cls-2" d="M25.88,475h0a4.72,4.72,0,0,1-4.73-4.72V433a3,3,0,0,1,3-3h4a3,3,0,0,1,3,3v36.72A5.27,5.27,0,0,1,25.88,475Z"/><path class="cls-2" d="M29.45,473.13l-.88.59a6,6,0,0,1-8.25-1.61L.51,442.69a3,3,0,0,1,.81-4.16l3.32-2.24a3,3,0,0,1,4.17.82L30.26,469A3,3,0,0,1,29.45,473.13Z"/></g></g></svg>