<svg id="b8145bd3-cc0b-495b-a5ff-83b3e4eaead5" data-name="圖層 1" xmlns="http://www.w3.org/2000/svg" viewBox="0 0 1048 398"><title>未命名-1</title><path d="M120.63,589.71H0L75.07,203.16H178.52Q335,203.16,335,335q0,44.41-15.47,95.56t-43.42,86.82q-27.93,35.67-67.48,54T120.63,589.71ZM248.72,346.44q0-41.26-21.06-59.6T164.48,268.5H147L97.14,524.38h29.23q91.4,0,117.19-130.95Q248.72,366.78,248.72,346.44Z" style="fill:none;stroke:#000;stroke-miterlimit:10"/><path d="M806.33,450.45q0,78.53,59.89,78.52,47,0,82.53-69.92l75.36,14.9q-62.47,121.5-171.64,121.49-65.91,0-99.43-34T719.51,461.05a350.37,350.37,0,0,1,6.88-66.47q39-197.43,201.15-197.43,107.46,0,120.64,111.46l-81.67,18.92q-2.58-30.66-15.76-47.28t-35-16.62q-33.52,0-57.45,24.5t-38,72.92Q806.33,409.48,806.33,450.45Z" style="fill:none;stroke:#000;stroke-miterlimit:10"/></svg>