<svg id="f81736d0-66c3-4a06-b20f-d932e5c39fce" data-name="layer 1" xmlns="http://www.w3.org/2000/svg"
     viewBox="0 0 1920 1080">
    <defs>
        <style>
            .e36bf66f-95b2-4ef9-842c-dfeb65eef4ec{fill:#4d4d4d;}.a9480504-87a1-4815-8eda-36b5fb524ef5{fill:#ffca84;}.a826d4f2-a34e-4f90-ab93-b56bdcc8a20d{fill:none;}
        </style>
    </defs>
    <title>DESIGN COMB</title>
    <path class="e36bf66f-95b2-4ef9-842c-dfeb65eef4ec"
          d="M525.17,516.5v77.7H492.75v-109H535q27.79,0,43.52,12.62,18.69,15.09,18.69,41,0,24.76-16,40.41T540.1,594.84q-3,0-9.66-.32v-32h5.19q28.35,0,28.35-23.72,0-22.28-27.87-22.28Z"/>
    <path class="e36bf66f-95b2-4ef9-842c-dfeb65eef4ec"
          d="M688.47,559.22H643.19a20.87,20.87,0,0,1,.4-14.13h15.17q-1.59-8.87-10-8.86a10.82,10.82,0,0,0-9.1,4.75q-3.52,4.75-3.52,12.18,0,7.74,3.4,12.53a10.42,10.42,0,0,0,8.9,4.79q4.47,0,8.63-4.47l17,20.44a41.76,41.76,0,0,1-26.43,9.35q-17.71,0-29.78-11.9t-12.06-29.47A40,40,0,0,1,618,524.89q12.18-12.06,29.9-12.06,17.33,0,29.11,11.78t11.78,29C688.79,554.81,688.68,556.67,688.47,559.22Z"/>
    <path class="e36bf66f-95b2-4ef9-842c-dfeb65eef4ec"
          d="M750.75,515.71v31.46c-4.21,0-7.09.78-8.66,2.35s-2.57,4.67-3,9.31Q737,581.9,721.21,591.4q-8.38,5-23.8,5h-4.15V564.73h1.36q7.18,0,10.26-3t3.55-10.5q.63-12.22,2.28-17.17a24.82,24.82,0,0,1,6.66-9.82q8.79-8.55,24.36-8.54Z"/>
    <path class="e36bf66f-95b2-4ef9-842c-dfeb65eef4ec"
          d="M790.36,514.59V594.2H760.49V514.59ZM775.5,479.06a14.59,14.59,0,0,1,10.5,4.27,14.11,14.11,0,0,1,.24,20.32,16.45,16.45,0,0,1-21.48,0,14.13,14.13,0,0,1,.24-20.32A14.63,14.63,0,0,1,775.5,479.06Z"/>
    <path class="e36bf66f-95b2-4ef9-842c-dfeb65eef4ec"
          d="M850.4,561.38v27.39a35.5,35.5,0,0,1-12.37,2.4,32,32,0,0,1-24.48-10.94q-10-11-10-26.75a38.66,38.66,0,0,1,12.06-28.83q12.06-11.74,29.62-11.74a44.06,44.06,0,0,1,17.89,3.75,33.63,33.63,0,0,1,13.42,10.07q8.15,10.46,8.14,30.34v26.19q0,21.32-12.1,34.62t-31.5,13.29q-5.91,0-14.93-2.95V601.07A24.34,24.34,0,0,0,838,604.26c5.37,0,9.53-1.77,12.45-5.31s4.4-8.61,4.4-15.21v-30q0-12.52-10.15-12.53a10.2,10.2,0,0,0-7.54,3.31,10.59,10.59,0,0,0-3.23,7.63,10.21,10.21,0,0,0,3.07,7.58,10.4,10.4,0,0,0,7.63,3A12.53,12.53,0,0,0,850.4,561.38Z"/>
    <path class="e36bf66f-95b2-4ef9-842c-dfeb65eef4ec"
          d="M973.21,594.2H943.35v-45q0-6.86-5.67-6.86t-5.59,6.86v45H902.23V549.8q0-15.57,10.3-26.23a33.73,33.73,0,0,1,25.23-10.66q17.09,0,27.39,12.38,8.07,9.66,8.06,26.91Z"/>
    <path class="e36bf66f-95b2-4ef9-842c-dfeb65eef4ec"
          d="M1107.44,540.94l33.94.88q-3.36,26.34-18.25,40.72t-38.84,14.37q-24.36,0-40.77-16.33t-16.41-40.52q0-24.34,16.73-41t41.25-16.61q24.11,0,40.24,16.29,11.18,11.25,15.81,31.38l-34.73,2.32q-5.84-17.9-22.12-17.89a22.48,22.48,0,0,0-17.13,7.18q-6.75,7.2-6.75,18.29,0,10.7,6.63,17.69a22.12,22.12,0,0,0,16.77,7q10.31,0,16.41-6.14T1107.44,540.94Z"/>
    <path class="e36bf66f-95b2-4ef9-842c-dfeb65eef4ec"
          d="M1192.24,512.91a39.45,39.45,0,0,1,29,12.18,41.3,41.3,0,0,1-.16,58.57,42.12,42.12,0,0,1-59.21,0,39.79,39.79,0,0,1-12.29-29.35,39.38,39.38,0,0,1,12.29-29.42Q1174.2,512.91,1192.24,512.91Zm-.79,29.47a10.89,10.89,0,0,0-8.15,3.47,12.37,12.37,0,0,0,0,17,11.21,11.21,0,0,0,16.29,0,12.34,12.34,0,0,0,0-17A11,11,0,0,0,1191.45,542.38Z"/>
    <path class="e36bf66f-95b2-4ef9-842c-dfeb65eef4ec"
          d="M1355.06,594.2H1325.2v-43q0-4.95-1-6.87a3.88,3.88,0,0,0-3.75-1.91q-5,0-5,8.86V594.2h-29.87v-43q0-4.95-1.08-6.87a4,4,0,0,0-3.79-1.91q-5,0-5,8.86V594.2h-29.86v-49a31.67,31.67,0,0,1,9-22.8,29.24,29.24,0,0,1,21.88-9.38q13.24,0,23.79,11.18Q1312.27,513,1324,513q14.93,0,24,10.86,7.1,8.46,7.1,24.67Z"/>
    <path class="e36bf66f-95b2-4ef9-842c-dfeb65eef4ec"
          d="M1400.66,485.2v65.24q0,15.9,11.41,15.89a11.38,11.38,0,0,0,8.27-3.31,10.82,10.82,0,0,0,3.39-8,11.33,11.33,0,0,0-3.19-8.18,10.46,10.46,0,0,0-7.83-3.32q-3.27,0-7.5,2.88v-32.9q5.26-.48,8-.48a39.2,39.2,0,0,1,28.87,12.14,41.59,41.59,0,0,1-.2,58.69q-12.22,12-30,12a41.29,41.29,0,0,1-17.44-3.92,39.17,39.17,0,0,1-14-10.54q-9.58-11.49-9.58-29.78V485.2Z"/>
    <path class="a9480504-87a1-4815-8eda-36b5fb524ef5"
          d="M504.89,503.53v77.69H472.47v-109h42.24q27.79,0,43.52,12.61,18.69,15.09,18.69,41,0,24.75-16,40.4t-41.13,15.65q-3,0-9.66-.32v-32h5.19q28.35,0,28.35-23.71,0-22.29-27.87-22.28Z"/>
    <path class="a9480504-87a1-4815-8eda-36b5fb524ef5"
          d="M668.19,546.25H622.91a20.9,20.9,0,0,1,.4-14.14h15.17q-1.59-8.85-10-8.86a10.82,10.82,0,0,0-9.1,4.75q-3.52,4.75-3.52,12.18,0,7.74,3.4,12.53a10.43,10.43,0,0,0,8.9,4.8q4.47,0,8.62-4.48l17,20.45a41.81,41.81,0,0,1-26.43,9.34q-17.73,0-29.78-11.9t-12.06-29.46a40,40,0,0,1,12.18-29.55q12.18-12.06,29.9-12.06,17.32,0,29.11,11.78t11.78,29C668.51,541.83,668.4,543.69,668.19,546.25Z"/>
    <path class="a9480504-87a1-4815-8eda-36b5fb524ef5"
          d="M730.47,502.73v31.46c-4.21,0-7.09.79-8.66,2.36s-2.57,4.67-3,9.3q-2.07,23.07-17.89,32.58-8.37,5-23.79,5H673V551.76h1.35c4.8,0,8.21-1,10.27-3s3.23-5.49,3.55-10.5q.63-12.21,2.27-17.17a25.07,25.07,0,0,1,6.67-9.82q8.79-8.53,24.36-8.54Z"/>
    <path class="a9480504-87a1-4815-8eda-36b5fb524ef5"
          d="M770.08,501.61v79.61H740.21V501.61Zm-14.86-35.53a14.59,14.59,0,0,1,10.5,4.27,14.11,14.11,0,0,1,.24,20.32,16.45,16.45,0,0,1-21.48,0,14.13,14.13,0,0,1,.24-20.32A14.63,14.63,0,0,1,755.22,466.08Z"/>
    <path class="a9480504-87a1-4815-8eda-36b5fb524ef5"
          d="M830.12,548.4v27.39a35.5,35.5,0,0,1-12.37,2.4,32,32,0,0,1-24.48-10.94q-10-10.93-10-26.75a38.68,38.68,0,0,1,12.06-28.83q12.06-11.73,29.62-11.74a44.07,44.07,0,0,1,17.89,3.76,33.41,33.41,0,0,1,13.41,10.06q8.16,10.46,8.15,30.34v26.19q0,21.33-12.1,34.62t-31.5,13.29q-5.91,0-14.93-3V588.09a24.31,24.31,0,0,0,11.82,3.19c5.37,0,9.53-1.77,12.45-5.31s4.4-8.61,4.4-15.21V540.82q0-12.54-10.14-12.54a10.24,10.24,0,0,0-7.55,3.31,10.61,10.61,0,0,0-3.24,7.63,10.25,10.25,0,0,0,3.08,7.59,10.43,10.43,0,0,0,7.62,3A12.54,12.54,0,0,0,830.12,548.4Z"/>
    <path class="a9480504-87a1-4815-8eda-36b5fb524ef5"
          d="M952.94,581.22H923.07v-45q0-6.87-5.67-6.87t-5.59,6.87v45H882V536.83q0-15.58,10.3-26.24a33.76,33.76,0,0,1,25.23-10.66q17.09,0,27.39,12.38,8.07,9.66,8.07,26.91Z"/>
    <path class="a9480504-87a1-4815-8eda-36b5fb524ef5"
          d="M1087.16,528l33.94.88q-3.36,26.35-18.25,40.72T1064,583.94q-24.36,0-40.77-16.33t-16.41-40.53q0-24.35,16.73-41t41.24-16.61q24.12,0,40.25,16.29,11.17,11.26,15.81,31.38l-34.73,2.32q-5.84-17.89-22.12-17.89a22.49,22.49,0,0,0-17.13,7.19q-6.75,7.19-6.75,18.28,0,10.71,6.63,17.69a22.12,22.12,0,0,0,16.77,7q10.29,0,16.41-6.15T1087.16,528Z"/>
    <path class="a9480504-87a1-4815-8eda-36b5fb524ef5"
          d="M1172,499.93a39.45,39.45,0,0,1,29,12.18,41.3,41.3,0,0,1-.16,58.57,42.12,42.12,0,0,1-59.21,0,39.8,39.8,0,0,1-12.3-29.34,39.4,39.4,0,0,1,12.3-29.43Q1153.92,499.93,1172,499.93Zm-.79,29.47a10.92,10.92,0,0,0-8.15,3.47,12.37,12.37,0,0,0,0,17,11.21,11.21,0,0,0,16.29,0,12.37,12.37,0,0,0,0-17A11,11,0,0,0,1171.17,529.4Z"/>
    <path class="a9480504-87a1-4815-8eda-36b5fb524ef5"
          d="M1334.78,581.22h-29.86v-43q0-4.95-1-6.86a3.88,3.88,0,0,0-3.75-1.92q-5,0-5,8.86v42.88h-29.87v-43q0-4.95-1.08-6.86a4,4,0,0,0-3.79-1.92q-5,0-4.95,8.86v42.88h-29.87v-49a31.64,31.64,0,0,1,9-22.79,29.21,29.21,0,0,1,21.88-9.39q13.24,0,23.79,11.18Q1292,500,1303.72,500q14.92,0,24,10.86,7.11,8.48,7.11,24.68Z"/>
    <path class="a9480504-87a1-4815-8eda-36b5fb524ef5"
          d="M1380.38,472.23v65.23q0,15.9,11.41,15.89a11.4,11.4,0,0,0,8.27-3.31,10.8,10.8,0,0,0,3.39-8,11.34,11.34,0,0,0-3.19-8.19,10.45,10.45,0,0,0-7.83-3.31q-3.27,0-7.5,2.87v-32.9q5.27-.48,8-.48a39.19,39.19,0,0,1,28.87,12.14,41.61,41.61,0,0,1-.2,58.69q-12.22,12-30,12a41.43,41.43,0,0,1-17.44-3.91,39.29,39.29,0,0,1-14-10.54q-9.57-11.5-9.58-29.79V472.23Z"/>
</svg>