<svg xmlns="http://www.w3.org/2000/svg" viewBox="0 0 216.93 200.85"><defs><style>.a25693c0-8a30-4e5d-918e-08bb64046123{fill:#666;}</style></defs><title>資產 8</title><g id="a2024a28-9a5a-4443-8313-2d231fa3b14b" data-name="圖層 2"><g id="b13eae7c-dd25-40ee-b04a-9f1c3969883e" data-name="圖層 1"><path class="a25693c0-8a30-4e5d-918e-08bb64046123" d="M159.82,188.85H57.11l5.18,3L17.41,109.31,10.93,97.4v6L55.81,20.94,62.29,9l-5.18,3H159.82l-5.18-3,44.87,82.51L206,103.45v-6l-44.87,82.5-6.48,11.92c-3.69,6.78,6.66,12.85,10.36,6.06l45.52-83.7c1.91-3.5,4.23-7,5.81-10.69,2-4.55-1.39-8.69-3.52-12.61L186.42,42.35,165,3a6,6,0,0,0-5.18-3H57.11a6,6,0,0,0-5.18,3L6.41,86.66c-1.91,3.51-4.24,7-5.82,10.69-2,4.56,1.39,8.7,3.52,12.62l26.4,48.53,21.42,39.38a6,6,0,0,0,5.18,3H159.82C167.54,200.85,167.55,188.85,159.82,188.85Z"/></g></g></svg>