<svg xmlns="http://www.w3.org/2000/svg" viewBox="0 0 313.71 201.26"><defs><style>.cls-1{fill:#ffca84;stroke:#666;stroke-miterlimit:10;}.cls-2{fill:#666;}</style></defs><title>資產 5</title><g id="圖層_2" data-name="圖層 2"><g id="圖層_1-2" data-name="圖層 1"><polygon class="cls-1" points="210.75 101.26 159.75 195.26 102.75 100.26 157.25 5.78 210.75 101.26"/><path class="cls-2" d="M159.82,189.26H57.11l5.18,3L17.41,109.72,10.93,97.81v6L55.81,21.35,62.29,9.44l-5.18,3H159.82l-5.18-3L199.51,92,206,103.86v-6l-44.87,82.5-6.48,11.92C151,199,161.3,205.08,165,198.29l45.52-83.7c1.91-3.5,4.23-7,5.81-10.69,2-4.55-1.39-8.69-3.52-12.61L186.42,42.76,165,3.38a6,6,0,0,0-5.18-3H57.11a6,6,0,0,0-5.18,3L6.41,87.07c-1.91,3.51-4.24,7-5.82,10.69-2,4.56,1.39,8.7,3.52,12.62l26.4,48.53,21.42,39.38a6,6,0,0,0,5.18,3H159.82C167.54,201.26,167.55,189.26,159.82,189.26Z"/><path class="cls-2" d="M256.61,188.85H153.9l5.18,3L114.2,109.31,107.72,97.4v6l44.87-82.51L159.08,9l-5.19,3H256.61l-5.18-3L296.3,91.54l6.48,11.91v-6l-44.87,82.5-6.48,11.92c-3.69,6.78,6.66,12.85,10.36,6.06l45.52-83.7c1.9-3.5,4.23-7,5.81-10.69,2-4.55-1.39-8.69-3.52-12.61L283.2,42.35,261.79,3a6,6,0,0,0-5.18-3H153.89a6,6,0,0,0-5.18,3L103.2,86.66c-1.91,3.51-4.24,7-5.82,10.69-2,4.56,1.39,8.7,3.52,12.62l26.4,48.53,21.41,39.38a6,6,0,0,0,5.19,3H256.61C264.33,200.85,264.34,188.85,256.61,188.85Z"/></g></g></svg>